<svg xmlns="http://www.w3.org/2000/svg" xmlns:xlink="http://www.w3.org/1999/xlink" width="200" zoomAndPan="magnify" viewBox="0 0 150 44.999999" height="60" preserveAspectRatio="xMidYMid meet" version="1.0"><defs><g/><clipPath id="112f068fc6"><path d="M 137.699219 25.949219 L 149.699219 25.949219 L 149.699219 37.949219 L 137.699219 37.949219 Z M 137.699219 25.949219 " clip-rule="nonzero"/></clipPath><clipPath id="eb1fec7abc"><path d="M 141 36 L 142 36 L 142 37.949219 L 141 37.949219 Z M 141 36 " clip-rule="nonzero"/></clipPath><clipPath id="c8485db70f"><path d="M 141 37 L 142 37 L 142 37.949219 L 141 37.949219 Z M 141 37 " clip-rule="nonzero"/></clipPath><clipPath id="dc6042f420"><path d="M 143 37 L 144 37 L 144 37.949219 L 143 37.949219 Z M 143 37 " clip-rule="nonzero"/></clipPath><clipPath id="db261620b8"><path d="M 144 37 L 145 37 L 145 37.949219 L 144 37.949219 Z M 144 37 " clip-rule="nonzero"/></clipPath><clipPath id="d2483d03ee"><path d="M 144 37 L 146 37 L 146 37.949219 L 144 37.949219 Z M 144 37 " clip-rule="nonzero"/></clipPath><clipPath id="bab1a85372"><path d="M 142 37 L 143 37 L 143 37.949219 L 142 37.949219 Z M 142 37 " clip-rule="nonzero"/></clipPath><clipPath id="3fb60856e8"><path d="M 140 26 L 149.699219 26 L 149.699219 32 L 140 32 Z M 140 26 " clip-rule="nonzero"/></clipPath><clipPath id="0de28b0ab4"><path d="M 138 34 L 146 34 L 146 37.949219 L 138 37.949219 Z M 138 34 " clip-rule="nonzero"/></clipPath></defs><g fill="#ffffff" fill-opacity="1"><g transform="translate(0.00000166667, 36.925061)"><g><path d="M 2.046875 -28.046875 L 12.28125 -28.046875 C 15.132812 -28.046875 17.441406 -27.304688 19.203125 -25.828125 C 20.972656 -24.359375 21.859375 -22.21875 21.859375 -19.40625 C 21.859375 -16.601562 20.960938 -14.398438 19.171875 -12.796875 C 17.378906 -11.203125 15.082031 -10.40625 12.28125 -10.40625 L 8.4375 -10.40625 L 8.4375 0 L 2.046875 0 Z M 8.4375 -15.5 L 10.234375 -15.5 C 11.660156 -15.5 12.832031 -15.785156 13.75 -16.359375 C 14.664062 -16.941406 15.125 -17.890625 15.125 -19.203125 C 15.125 -20.546875 14.664062 -21.503906 13.75 -22.078125 C 12.832031 -22.660156 11.660156 -22.953125 10.234375 -22.953125 L 8.4375 -22.953125 Z M 8.4375 -15.5 "/></g></g></g><g fill="#ffffff" fill-opacity="1"><g transform="translate(21.281502, 36.925061)"><g><path d="M 3.21875 -2.15625 C 1.59375 -3.9375 0.78125 -6.117188 0.78125 -8.703125 C 0.78125 -11.285156 1.59375 -13.472656 3.21875 -15.265625 C 4.851562 -17.054688 6.929688 -17.953125 9.453125 -17.953125 C 11.765625 -17.953125 13.664062 -17.226562 15.15625 -15.78125 L 15.15625 -17.4375 L 21.1875 -17.4375 L 21.1875 0 L 15.234375 0 L 15.234375 -1.96875 L 15.15625 -1.96875 C 13.664062 -0.3125 11.765625 0.515625 9.453125 0.515625 C 6.929688 0.515625 4.851562 -0.375 3.21875 -2.15625 Z M 8.34375 -11.65625 C 7.5625 -10.882812 7.171875 -9.898438 7.171875 -8.703125 C 7.171875 -7.503906 7.546875 -6.523438 8.296875 -5.765625 C 9.046875 -5.003906 10.03125 -4.625 11.25 -4.625 C 12.425781 -4.625 13.394531 -5.007812 14.15625 -5.78125 C 14.914062 -6.550781 15.296875 -7.523438 15.296875 -8.703125 C 15.296875 -9.898438 14.90625 -10.882812 14.125 -11.65625 C 13.34375 -12.425781 12.382812 -12.8125 11.25 -12.8125 C 10.09375 -12.8125 9.125 -12.425781 8.34375 -11.65625 Z M 8.34375 -11.65625 "/></g></g></g><g fill="#ffffff" fill-opacity="1"><g transform="translate(44.500842, 36.925061)"><g><path d="M 3.21875 -2.15625 C 1.59375 -3.9375 0.78125 -6.117188 0.78125 -8.703125 C 0.78125 -11.285156 1.59375 -13.472656 3.21875 -15.265625 C 4.851562 -17.054688 6.929688 -17.953125 9.453125 -17.953125 C 11.765625 -17.953125 13.664062 -17.226562 15.15625 -15.78125 L 15.15625 -29.234375 L 21.1875 -29.234375 L 21.1875 0 L 15.234375 0 L 15.234375 -1.96875 L 15.15625 -1.96875 C 13.664062 -0.3125 11.765625 0.515625 9.453125 0.515625 C 6.929688 0.515625 4.851562 -0.375 3.21875 -2.15625 Z M 8.34375 -11.65625 C 7.5625 -10.882812 7.171875 -9.898438 7.171875 -8.703125 C 7.171875 -7.503906 7.546875 -6.523438 8.296875 -5.765625 C 9.046875 -5.003906 10.03125 -4.625 11.25 -4.625 C 12.425781 -4.625 13.394531 -5.007812 14.15625 -5.78125 C 14.914062 -6.550781 15.296875 -7.523438 15.296875 -8.703125 C 15.296875 -9.898438 14.90625 -10.882812 14.125 -11.65625 C 13.34375 -12.425781 12.382812 -12.8125 11.25 -12.8125 C 10.09375 -12.8125 9.125 -12.425781 8.34375 -11.65625 Z M 8.34375 -11.65625 "/></g></g></g><g fill="#ffffff" fill-opacity="1"><g transform="translate(67.720182, 36.925061)"><g><path d="M 19.6875 -7.890625 L 7.03125 -7.890625 C 7.03125 -6.660156 7.425781 -5.75 8.21875 -5.15625 C 9.019531 -4.570312 9.882812 -4.28125 10.8125 -4.28125 C 11.789062 -4.28125 12.5625 -4.410156 13.125 -4.671875 C 13.6875 -4.929688 14.332031 -5.445312 15.0625 -6.21875 L 19.40625 -4.046875 C 17.59375 -1.003906 14.582031 0.515625 10.375 0.515625 C 7.738281 0.515625 5.476562 -0.382812 3.59375 -2.1875 C 1.71875 -3.988281 0.78125 -6.160156 0.78125 -8.703125 C 0.78125 -11.242188 1.71875 -13.421875 3.59375 -15.234375 C 5.476562 -17.046875 7.738281 -17.953125 10.375 -17.953125 C 13.132812 -17.953125 15.378906 -17.148438 17.109375 -15.546875 C 18.847656 -13.953125 19.71875 -11.671875 19.71875 -8.703125 C 19.71875 -8.296875 19.707031 -8.023438 19.6875 -7.890625 Z M 7.203125 -11.21875 L 13.84375 -11.21875 C 13.707031 -12.125 13.347656 -12.820312 12.765625 -13.3125 C 12.191406 -13.800781 11.453125 -14.046875 10.546875 -14.046875 C 9.546875 -14.046875 8.75 -13.785156 8.15625 -13.265625 C 7.570312 -12.742188 7.253906 -12.0625 7.203125 -11.21875 Z M 7.203125 -11.21875 "/></g></g></g><g fill="#ffffff" fill-opacity="1"><g transform="translate(88.151845, 36.925061)"><g><path d="M 2.046875 0 L 2.046875 -29.234375 L 8.0625 -29.234375 L 8.0625 0 Z M 2.046875 0 "/></g></g></g><g fill="#ffffff" fill-opacity="1"><g transform="translate(98.248691, 36.925061)"><g/></g></g><g fill="#ffffff" fill-opacity="1"><g transform="translate(107.529632, 36.925061)"><g><path d="M 2.609375 -27.15625 C 3.316406 -27.863281 4.15625 -28.21875 5.125 -28.21875 C 6.101562 -28.21875 6.941406 -27.863281 7.640625 -27.15625 C 8.347656 -26.457031 8.703125 -25.617188 8.703125 -24.640625 C 8.703125 -23.671875 8.347656 -22.832031 7.640625 -22.125 C 6.941406 -21.425781 6.101562 -21.078125 5.125 -21.078125 C 4.15625 -21.078125 3.316406 -21.425781 2.609375 -22.125 C 1.910156 -22.832031 1.5625 -23.671875 1.5625 -24.640625 C 1.5625 -25.617188 1.910156 -26.457031 2.609375 -27.15625 Z M 2.046875 -17.4375 L 2.046875 0 L 8.0625 0 L 8.0625 -17.4375 Z M 2.046875 -17.4375 "/></g></g></g><g fill="#ffffff" fill-opacity="1"><g transform="translate(117.796458, 36.925061)"><g><path d="M 3.0625 -17.4375 L 3.0625 -23.9375 L 9.078125 -23.9375 L 9.078125 -17.4375 L 12.75 -17.4375 L 12.75 -12.859375 L 9.078125 -12.859375 L 9.078125 -7.3125 C 9.078125 -5.695312 9.53125 -4.890625 10.4375 -4.890625 C 10.664062 -4.890625 10.90625 -4.9375 11.15625 -5.03125 C 11.40625 -5.125 11.597656 -5.210938 11.734375 -5.296875 L 11.9375 -5.4375 L 13.4375 -0.578125 C 12.132812 0.148438 10.660156 0.515625 9.015625 0.515625 C 7.878906 0.515625 6.898438 0.316406 6.078125 -0.078125 C 5.265625 -0.484375 4.648438 -1.019531 4.234375 -1.6875 C 3.816406 -2.351562 3.515625 -3.050781 3.328125 -3.78125 C 3.148438 -4.519531 3.0625 -5.3125 3.0625 -6.15625 L 3.0625 -12.859375 L 0.546875 -12.859375 L 0.546875 -17.4375 Z M 3.0625 -17.4375 "/></g></g></g><g clip-path="url(#112f068fc6)"><path fill="#eee4cf" d="M 149.996094 32.097656 C 149.996094 32.105469 149.996094 32.113281 149.996094 32.121094 C 149.992188 32.839844 149.867188 33.53125 149.640625 34.167969 C 149.609375 34.253906 149.574219 34.339844 149.539062 34.425781 C 149.207031 35.238281 148.703125 35.964844 148.078125 36.5625 C 147.449219 37.15625 146.695312 37.621094 145.855469 37.910156 C 145.644531 37.984375 145.421875 38.046875 145.199219 38.097656 C 145.195312 38.097656 145.1875 38.097656 145.183594 38.101562 C 144.933594 38.15625 144.679688 38.195312 144.421875 38.21875 C 144.234375 38.238281 144.042969 38.246094 143.851562 38.246094 C 143.21875 38.246094 142.613281 38.152344 142.039062 37.976562 C 141.894531 37.929688 141.753906 37.882812 141.613281 37.828125 C 140.351562 37.332031 139.289062 36.433594 138.59375 35.289062 C 138.476562 35.097656 138.371094 34.902344 138.277344 34.699219 C 137.925781 33.949219 137.722656 33.117188 137.703125 32.238281 C 137.703125 32.191406 137.703125 32.144531 137.703125 32.101562 C 137.703125 32.054688 137.703125 32.007812 137.703125 31.964844 C 137.742188 30.207031 138.515625 28.632812 139.730469 27.539062 C 139.828125 27.449219 139.925781 27.367188 140.027344 27.285156 C 140.089844 27.234375 140.152344 27.1875 140.214844 27.144531 C 140.425781 26.988281 140.644531 26.847656 140.875 26.71875 C 141.757812 26.230469 142.769531 25.953125 143.851562 25.953125 C 144.3125 25.953125 144.765625 26.003906 145.195312 26.101562 C 145.421875 26.152344 145.640625 26.214844 145.855469 26.289062 C 147.300781 26.785156 148.5 27.808594 149.230469 29.125 C 149.375 29.386719 149.5 29.65625 149.605469 29.9375 C 149.613281 29.957031 149.621094 29.976562 149.625 29.996094 C 149.675781 30.128906 149.71875 30.265625 149.757812 30.402344 C 149.890625 30.855469 149.96875 31.332031 149.988281 31.820312 C 149.992188 31.914062 149.996094 32.007812 149.996094 32.097656 Z M 149.996094 32.097656 " fill-opacity="1" fill-rule="nonzero"/></g><g clip-path="url(#eb1fec7abc)"><path fill="#eee4cf" d="M 141.195312 37.039062 C 141.320312 37.039062 141.320312 36.839844 141.195312 36.839844 C 141.066406 36.839844 141.066406 37.039062 141.195312 37.039062 Z M 141.195312 37.039062 " fill-opacity="1" fill-rule="nonzero"/></g><path fill="#eee4cf" d="M 140.515625 36.621094 C 140.640625 36.621094 140.640625 36.425781 140.515625 36.425781 C 140.386719 36.425781 140.386719 36.621094 140.515625 36.621094 Z M 140.515625 36.621094 " fill-opacity="1" fill-rule="nonzero"/><path fill="#eee4cf" d="M 141.128906 36.25 C 141.253906 36.25 141.253906 36.050781 141.128906 36.050781 C 141 36.054688 141 36.25 141.128906 36.25 Z M 141.128906 36.25 " fill-opacity="1" fill-rule="nonzero"/><path fill="#eee4cf" d="M 140.054688 35.703125 C 140.046875 35.703125 140.039062 35.703125 140.035156 35.703125 C 139.980469 35.703125 139.933594 35.746094 139.933594 35.800781 C 139.9375 35.855469 139.976562 35.898438 140.035156 35.898438 C 140.039062 35.898438 140.046875 35.898438 140.054688 35.898438 C 140.105469 35.898438 140.15625 35.855469 140.152344 35.800781 C 140.152344 35.746094 140.109375 35.703125 140.054688 35.703125 Z M 140.054688 35.703125 " fill-opacity="1" fill-rule="nonzero"/><path fill="#eee4cf" d="M 140.648438 35.613281 C 140.773438 35.613281 140.773438 35.417969 140.648438 35.417969 C 140.519531 35.417969 140.519531 35.613281 140.648438 35.613281 Z M 140.648438 35.613281 " fill-opacity="1" fill-rule="nonzero"/><path fill="#eee4cf" d="M 139.378906 35.175781 C 139.503906 35.175781 139.503906 34.980469 139.378906 34.980469 C 139.25 34.980469 139.25 35.175781 139.378906 35.175781 Z M 139.378906 35.175781 " fill-opacity="1" fill-rule="nonzero"/><path fill="#eee4cf" d="M 138.71875 34.628906 C 138.847656 34.628906 138.847656 34.433594 138.71875 34.433594 C 138.59375 34.433594 138.59375 34.628906 138.71875 34.628906 Z M 138.71875 34.628906 " fill-opacity="1" fill-rule="nonzero"/><path fill="#eee4cf" d="M 141.960938 36.929688 C 142.085938 36.929688 142.085938 36.730469 141.960938 36.730469 C 141.832031 36.730469 141.832031 36.929688 141.960938 36.929688 Z M 141.960938 36.929688 " fill-opacity="1" fill-rule="nonzero"/><g clip-path="url(#c8485db70f)"><path fill="#eee4cf" d="M 141.675781 37.433594 C 141.804688 37.433594 141.804688 37.234375 141.675781 37.234375 C 141.546875 37.234375 141.546875 37.433594 141.675781 37.433594 Z M 141.675781 37.433594 " fill-opacity="1" fill-rule="nonzero"/></g><g clip-path="url(#dc6042f420)"><path fill="#eee4cf" d="M 143.425781 37.824219 C 143.554688 37.824219 143.554688 37.628906 143.425781 37.628906 C 143.300781 37.628906 143.300781 37.824219 143.425781 37.824219 Z M 143.425781 37.824219 " fill-opacity="1" fill-rule="nonzero"/></g><g clip-path="url(#db261620b8)"><path fill="#eee4cf" d="M 144.347656 37.714844 C 144.472656 37.714844 144.472656 37.519531 144.347656 37.519531 C 144.21875 37.519531 144.21875 37.714844 144.347656 37.714844 Z M 144.347656 37.714844 " fill-opacity="1" fill-rule="nonzero"/></g><g clip-path="url(#d2483d03ee)"><path fill="#eee4cf" d="M 145.089844 37.847656 C 145.21875 37.847656 145.21875 37.652344 145.089844 37.652344 C 144.964844 37.652344 144.964844 37.847656 145.089844 37.847656 Z M 145.089844 37.847656 " fill-opacity="1" fill-rule="nonzero"/></g><path fill="#eee4cf" d="M 139.34375 35.625 C 139.34375 35.632812 139.34375 35.640625 139.34375 35.648438 C 139.34375 35.699219 139.390625 35.75 139.441406 35.746094 C 139.496094 35.742188 139.542969 35.703125 139.542969 35.648438 C 139.542969 35.640625 139.542969 35.632812 139.542969 35.625 C 139.542969 35.574219 139.496094 35.523438 139.441406 35.527344 C 139.390625 35.53125 139.34375 35.570312 139.34375 35.625 Z M 139.34375 35.625 " fill-opacity="1" fill-rule="nonzero"/><path fill="#eee4cf" d="M 139.890625 34.992188 C 139.890625 35 139.890625 35.003906 139.890625 35.011719 C 139.890625 35.0625 139.9375 35.113281 139.988281 35.113281 C 140.042969 35.109375 140.089844 35.066406 140.089844 35.011719 C 140.089844 35.003906 140.089844 35 140.089844 34.992188 C 140.089844 34.941406 140.042969 34.890625 139.988281 34.890625 C 139.9375 34.894531 139.890625 34.9375 139.890625 34.992188 Z M 139.890625 34.992188 " fill-opacity="1" fill-rule="nonzero"/><path fill="#eee4cf" d="M 138.371094 33.90625 C 138.496094 33.90625 138.496094 33.710938 138.371094 33.710938 C 138.242188 33.710938 138.242188 33.90625 138.371094 33.90625 Z M 138.371094 33.90625 " fill-opacity="1" fill-rule="nonzero"/><g clip-path="url(#bab1a85372)"><path fill="#eee4cf" d="M 142.648438 37.179688 C 142.648438 37.171875 142.648438 37.164062 142.648438 37.160156 C 142.648438 37.105469 142.605469 37.058594 142.550781 37.058594 C 142.496094 37.0625 142.453125 37.101562 142.453125 37.160156 C 142.453125 37.164062 142.453125 37.171875 142.453125 37.179688 C 142.453125 37.230469 142.496094 37.28125 142.550781 37.277344 C 142.605469 37.277344 142.648438 37.234375 142.648438 37.179688 Z M 142.648438 37.179688 " fill-opacity="1" fill-rule="nonzero"/></g><g clip-path="url(#3fb60856e8)"><path fill="#232323" d="M 149.605469 29.9375 C 149.542969 29.910156 149.480469 29.886719 149.417969 29.863281 C 148.582031 29.574219 147.640625 29.636719 146.832031 30.035156 C 146.542969 30.179688 146.277344 30.371094 145.996094 30.574219 C 145.488281 30.9375 144.960938 31.316406 144.269531 31.421875 C 143.207031 31.585938 142.253906 31.277344 141.527344 30.527344 C 140.742188 29.722656 140.261719 28.4375 140.214844 27.140625 C 140.425781 26.988281 140.644531 26.84375 140.875 26.71875 C 140.835938 27.855469 141.175781 29.222656 141.996094 30.066406 C 142.582031 30.667969 143.3125 30.902344 144.167969 30.769531 C 144.703125 30.691406 145.144531 30.375 145.609375 30.039062 C 145.902344 29.828125 146.203125 29.613281 146.539062 29.445312 C 147.378906 29.03125 148.335938 28.921875 149.230469 29.125 C 149.375 29.386719 149.5 29.65625 149.605469 29.9375 Z M 149.605469 29.9375 " fill-opacity="1" fill-rule="nonzero"/></g><g clip-path="url(#0de28b0ab4)"><path fill="#232323" d="M 145.183594 38.101562 C 144.933594 38.15625 144.679688 38.195312 144.417969 38.21875 C 144.363281 38.144531 144.3125 38.066406 144.269531 37.992188 C 144.109375 37.726562 144 37.445312 143.894531 37.175781 C 143.789062 36.902344 143.6875 36.644531 143.546875 36.417969 C 143.285156 36.007812 142.941406 35.65625 142.542969 35.402344 C 141.34375 34.640625 139.90625 34.878906 138.59375 35.285156 C 138.476562 35.097656 138.371094 34.898438 138.277344 34.695312 C 139.726562 34.238281 141.4375 33.917969 142.894531 34.847656 C 143.375 35.152344 143.792969 35.574219 144.101562 36.066406 C 144.277344 36.34375 144.394531 36.644531 144.507812 36.9375 C 144.609375 37.191406 144.703125 37.433594 144.832031 37.652344 C 144.925781 37.808594 145.046875 37.96875 145.183594 38.101562 Z M 145.183594 38.101562 " fill-opacity="1" fill-rule="nonzero"/></g></svg>